<?xml version="1.0" encoding="utf-8" ?><svg xmlns="http://www.w3.org/2000/svg" xmlns:xlink="http://www.w3.org/1999/xlink" width="7826" height="4403" viewBox="0 0 7826 4403"><path fill="#3233BD" transform="scale(4.30009 4.30009)" d="M907.11 171.637L908.795 170.117C911.933 170.426 912.974 171.998 915.183 174.679L915.569 175.154C922.11 179.991 931.415 190.114 937.425 196.24L978.719 238.559C1007.89 267.94 1041.44 298.688 1072.26 326.247C1126.25 374.191 1181.99 420.12 1239.38 463.939C1253.3 474.386 1267.43 484.639 1281.71 494.588C1290.28 500.558 1301.7 506.714 1309.65 512.986C1308.02 516.066 1296.58 521.552 1293.02 523.7C1263.84 541.321 1237.31 561.57 1210.47 582.585C1138.42 640.107 1069.01 700.863 1002.46 764.667C988.268 778.171 974.251 791.86 960.414 805.729C953.28 812.915 945.129 821.93 937.967 828.585C930.028 838.172 919.05 849.377 910.412 858.686C901.835 850.264 893.382 841.717 885.056 833.047C880.094 829.085 870.117 818.677 865.197 813.728C856.332 804.855 847.369 796.08 838.311 787.404C799.446 749.957 763.194 714.646 722.941 678.245C677.049 637.137 629.308 598.142 579.868 561.381C558.653 545.407 535.76 529.921 514.926 513.72L514.814 512.295C515.933 509.522 589.69 456.932 599.822 449.05C661.611 401.777 720.965 351.402 777.656 298.12C795.327 281.637 812.852 264.999 830.23 248.208C839.376 239.273 851.249 226.742 860.506 218.589C863.164 215.131 873.695 204.706 877.133 201.334C886.741 191.91 897.141 180.407 907.11 171.637ZM856.801 608.95C854.087 608.113 855.482 606.992 854.758 606.565C848.101 602.641 837.004 596.287 833.179 589.383L835.264 589.997L836.109 589.401L835.917 587.03L837.255 586.846L833.787 582.116C806.081 553.762 802.213 502.819 816.01 467.11C818.63 456.577 827.453 444.89 833.234 435.757C834.46 434.899 837.891 431.153 839.131 429.853C842.468 424.968 845.505 420.496 851.383 420.436L851.969 419.163L849.849 417.821C837.173 413.358 835.92 374.342 829.956 368.174C826.948 358.11 869.691 279.257 875.725 266.17C879.88 257.161 888.4 237.677 892.86 229.047C896.311 220.748 900.116 212.617 903.428 204.256C906.469 196.58 904.896 197.501 902.653 190.465C897.027 192.75 869.573 256.272 863.463 265.718C861.649 268.523 863.239 274.473 860.896 278.154L860.425 278.294C855.182 279.913 851.104 292.459 846.912 298.312C847.06 295.69 849.036 291.762 850.211 289.264C865.629 256.504 880.536 223.522 897.529 191.534C900.686 185.592 905.007 177.865 907.11 171.637C897.141 180.407 886.741 191.91 877.133 201.334C873.695 204.706 863.164 215.131 860.506 218.589C851.249 226.742 839.376 239.273 830.23 248.208C812.852 264.999 795.327 281.637 777.656 298.12C720.965 351.402 661.611 401.777 599.822 449.05C589.69 456.932 515.933 509.522 514.814 512.295L514.926 513.72C535.76 529.921 558.653 545.407 579.868 561.381C629.308 598.142 677.049 637.137 722.941 678.245C763.194 714.646 799.446 749.957 838.311 787.404C847.369 796.08 856.332 804.855 865.197 813.728C870.117 818.677 880.094 829.085 885.056 833.047C890.355 833.029 899.227 842.74 902.061 846.925C903.626 849.627 905.022 850.45 907.457 852.3L908.627 852.077C909.561 848.596 908.191 846.148 908.196 842.485L908.899 838.351C909.743 837.56 909.399 837.771 910.565 837.402L910.633 837.832L911.205 832.727C910.822 830.728 910.487 829.665 909.858 827.723C907.841 821.448 911.439 821.281 908.007 816.055C908.038 813.229 906.858 810.394 905.964 807.646C908.264 810.608 908.141 811.315 911.995 812.481C922.283 791.852 925.852 770.083 933.62 750.068C936.046 736.604 942.431 715.377 945.776 700.997C953.084 669.366 959.1 637.451 963.809 605.33L964.586 601.769L964.862 599.654C962.785 599.359 957.045 602.964 954.919 604.088C927.594 618.54 887.841 618.427 860.932 602.878C857.58 601.139 858.651 601.107 855.694 601.482C855.465 604.194 856.169 606.294 856.801 608.95ZM964.026 288.506C963.748 283.922 964.406 282.829 960.74 280.562C958.102 277.713 958.39 274.383 957.381 273.2C953.584 268.742 944.966 245.406 942.252 242.93L939.575 243.569C942.214 250.696 949.724 262.554 948.007 267.634L947.079 268.332C957.02 291.638 969.552 314.223 980.485 337.096C981.904 340.065 983.416 343.719 985.044 346.52L987.405 347.274C988.429 349.619 988.624 350.324 989.149 352.833L990.381 354.02C992.079 357.814 991.245 357.414 994.297 359.446C996.375 359.505 997.947 359.747 999.859 358.97L999.603 357.86C993.465 348.065 990.178 334.904 984.304 324.195C977.385 322.668 979.98 313.357 973.594 308.321C971.006 304.446 966.998 293.896 964.026 288.506ZM1113.08 514.096C1109.98 516.175 1106.91 518.291 1103.87 520.443C1112.05 520.5 1156.01 519.976 1159.39 524.251C1156.42 532.542 1043.14 616.779 1027.48 629.188L1014.75 638.855C1010.55 642.258 1005.15 647.496 1000.14 648.529C996.663 647.778 996.249 647.191 994.463 643.858C994.991 645.857 994.923 646.01 994.689 648.1L994.344 648.056L994.27 648.607L993.01 648.283L992.516 646.272L991.154 645.59L991.917 652.647C989.715 661.411 987.878 666.507 984.585 674.956C988.089 669.533 991.284 664.297 995.462 659.364C1002.56 653.134 1012.02 646.247 1019.64 640.404L1030.12 632.357L1107.17 573.861C1117.82 565.721 1174.2 524.065 1175.4 515.09C1172.48 512.474 1121.67 514.003 1113.08 514.096ZM1244.49 510.881L1251.17 510.756C1247.67 505.944 1244.94 502.861 1238.34 504.012L1237.64 505.665C1239.28 509.114 1240.54 508.918 1244.49 510.881ZM965.358 421.2L963.029 413.211C954.048 376.851 951.095 336.513 940.592 300.008C937.231 288.325 933.434 275.116 931.003 263.276C926.534 253.142 922.158 223.467 912.912 216.232C903.065 214.295 897.555 241.99 895.687 249.073C885.637 287.077 876.097 325.213 867.07 363.473C863.099 379.811 858.609 407.701 852.048 421.274C856.787 419.364 861.506 417.403 866.203 415.392C869.581 418.327 870.471 418.28 875.237 418.479C858.318 427.936 863.833 420.459 851.046 423.419C855.085 423.98 859.696 424.898 861.888 428.78L863.495 428.022C864.326 428.955 864.682 429.845 865.274 430.962C863.443 434.248 840.836 441.885 838.349 450.241C835.062 461.284 829.957 474.973 827.654 486.034L828.131 487.486L829.364 487.495C832.565 484.332 835.788 477.248 837.71 473.024C838.374 475.258 832.705 484.183 833.66 487.525C835.218 484.953 836.282 483.13 838.166 480.767C839.418 481.906 841.202 494.529 841.691 497.198C838.449 500.898 838.975 497.527 837.697 500.432L840.321 503.76L839.379 504.863L837.327 504.178C836.44 506.45 840.35 525.147 842.641 526.536C846.98 529.165 850.324 537.344 855.36 537.807C855.461 535.767 855.577 536.799 854.492 534.679L858.305 534.275C860.484 536.266 861.425 536.355 864.322 536.758C864.86 535.795 864.76 536.282 864.734 535.325L866.489 534.973C865.935 533.84 865.568 533.125 865.138 531.928C865.72 532.451 871.494 537.635 871.495 537.635C877.616 538.49 876.421 532.814 881.156 539.122C886.161 540.853 897.772 541.411 903.793 542.835C911.376 544.628 915.069 548.721 922.615 547.715C942.264 545.095 934.126 539.13 954.255 543.291C961.278 538.475 971.839 536.605 979.366 531.175C985.222 526.952 992.585 516.431 998.971 514.355L999.95 514.97C1002.78 530.366 995.355 556.086 986.915 568.786C986.188 569.879 986.544 575.47 986.636 576.913C983.123 579.313 973.224 585.123 972.452 588.702C975.687 589.437 978.595 587.23 982.185 586.279C1000.98 579.075 1035.38 555.39 1053.27 544.267C1065.34 536.762 1089.39 521.558 1099.58 513.153C1094.73 508.546 1075.66 495.745 1068.8 491.072C1041.19 472.265 1012.76 452.122 983.743 435.73L983.108 434.418C977.885 433.209 968.799 425.863 966.239 421.212L965.358 421.2Z"/><path fill="#AF97EB" fill-opacity="0.98431373" transform="scale(4.30009 4.30009)" d="M1113.08 514.096C1121.67 514.003 1172.48 512.474 1175.4 515.09C1174.2 524.065 1117.82 565.721 1107.17 573.861L1030.12 632.357L1027.48 629.188C1043.14 616.779 1156.42 532.542 1159.39 524.251C1156.01 519.976 1112.05 520.5 1103.87 520.443C1106.91 518.291 1109.98 516.175 1113.08 514.096Z"/><path fill="#AF97EB" fill-opacity="0.93725491" transform="scale(4.30009 4.30009)" d="M939.575 243.569L942.252 242.93C944.966 245.406 953.584 268.742 957.381 273.2C958.39 274.383 958.102 277.713 960.74 280.562C964.406 282.829 963.748 283.922 964.026 288.506L960.442 290.1C961.744 294.327 967.422 307.382 971.217 309.538L973.594 308.321C979.98 313.357 977.385 322.668 984.304 324.195C990.178 334.904 993.465 348.065 999.603 357.86C994.095 356.103 995.854 354.2 990.381 354.02L989.149 352.833C988.624 350.324 988.429 349.619 987.405 347.274L985.044 346.52C983.416 343.719 981.904 340.065 980.485 337.096C969.552 314.223 957.02 291.638 947.079 268.332L948.007 267.634C949.724 262.554 942.214 250.696 939.575 243.569Z"/><path fill="#BA9BEF" fill-opacity="0.98431373" transform="scale(4.30009 4.30009)" d="M1014.75 638.855L1019.64 640.404C1012.02 646.247 1002.56 653.134 995.462 659.364L995.771 657.249C997.333 655.381 1000.08 652.382 999.464 649.942C996.178 649.998 994.74 651.08 991.917 652.647L991.154 645.59L992.516 646.272L993.01 648.283L994.27 648.607L994.344 648.056L994.689 648.1C994.923 646.01 994.991 645.857 994.463 643.858C996.249 647.191 996.663 647.778 1000.14 648.529C1005.15 647.496 1010.55 642.258 1014.75 638.855Z"/><path fill="#D4AFEB" fill-opacity="0.96078432" transform="scale(4.30009 4.30009)" d="M964.026 288.506C966.998 293.896 971.006 304.446 973.594 308.321L971.217 309.538C967.422 307.382 961.744 294.327 960.442 290.1L964.026 288.506Z"/><path fill="#BA9BEF" fill-opacity="0.87843138" transform="scale(4.30009 4.30009)" d="M991.917 652.647C994.74 651.08 996.178 649.998 999.464 649.942C1000.08 652.382 997.333 655.381 995.771 657.249L995.462 659.364C991.284 664.297 988.089 669.533 984.585 674.956C987.878 666.507 989.715 661.411 991.917 652.647Z"/><path fill="#AF97EB" fill-opacity="0.86666667" transform="scale(4.30009 4.30009)" d="M802.105 369.175C805.69 366.737 815.106 362.069 819.277 362.569L820.51 364.924L822.383 365.436L819.294 366.48C813.446 368.383 810.06 370.211 804.618 372.983C803.284 372.007 802.851 370.689 802.105 369.175Z"/><path fill="#FEFEFE" fill-opacity="0.82352942" transform="scale(4.30009 4.30009)" d="M1244.49 510.881C1240.54 508.918 1239.28 509.114 1237.64 505.665L1238.34 504.012C1244.94 502.861 1247.67 505.944 1251.17 510.756L1244.49 510.881Z"/><path fill="#BA9BEF" fill-opacity="0.86666667" transform="scale(4.30009 4.30009)" d="M1027.48 629.188L1030.12 632.357L1019.64 640.404L1014.75 638.855L1027.48 629.188Z"/><path fill="#BA9BEF" fill-opacity="0.13725491" transform="scale(4.30009 4.30009)" d="M990.381 354.02C995.854 354.2 994.095 356.103 999.603 357.86L999.859 358.97C997.947 359.747 996.375 359.505 994.297 359.446C991.245 357.414 992.079 357.814 990.381 354.02Z"/><path fill="#3233BD" transform="scale(4.30009 4.30009)" d="M860.506 218.589C863.164 215.131 873.695 204.706 877.133 201.334C886.741 191.91 897.141 180.407 907.11 171.637C905.007 177.865 900.686 185.592 897.529 191.534C880.536 223.522 865.629 256.504 850.211 289.264C849.036 291.762 847.06 295.69 846.912 298.312C846.644 304.21 828.463 334.963 825.898 344.98C824.301 351.221 825.35 357.463 823.386 360.344C821.996 361.127 820.719 361.878 819.277 362.569C815.106 362.069 805.69 366.737 802.105 369.175C802.851 370.689 803.284 372.007 804.618 372.983C810.06 370.211 813.446 368.383 819.294 366.48L822.383 365.436C824.418 366.339 827.916 368.173 829.956 368.174C835.92 374.342 837.173 413.358 849.849 417.821L851.969 419.163L851.383 420.436C845.505 420.496 842.468 424.968 839.131 429.853C837.891 431.153 834.46 434.899 833.234 435.757C824.981 439.829 816.97 445.224 809.265 450.289C778.803 470.311 749.31 491.968 719.625 513.124C726.732 516.931 737.28 524.757 744.165 529.519C757.832 538.796 771.354 548.285 784.726 557.983C802.881 569.205 816.803 577.401 835.917 587.03L836.109 589.401L835.264 589.997L833.179 589.383C837.004 596.287 848.101 602.641 854.758 606.565C855.482 606.992 854.087 608.113 856.801 608.95C857.795 612.06 859.902 621.369 859.941 624.602C868.841 667.876 878.24 710.692 889.131 753.541C892.311 766.05 897.268 779.146 901.01 791.533C901.911 794.514 905.723 805.211 905.964 807.646C906.858 810.394 908.038 813.229 908.007 816.055L903.963 816.434L901.247 815.766L899.939 817.371C901.719 824.729 904.879 831.375 906.76 839.336L908.196 842.485C908.191 846.148 909.561 848.596 908.627 852.077L907.457 852.3C905.022 850.45 903.626 849.627 902.061 846.925C899.227 842.74 890.355 833.029 885.056 833.047C880.094 829.085 870.117 818.677 865.197 813.728C856.332 804.855 847.369 796.08 838.311 787.404C799.446 749.957 763.194 714.646 722.941 678.245C677.049 637.137 629.308 598.142 579.868 561.381C558.653 545.407 535.76 529.921 514.926 513.72L514.814 512.295C515.933 509.522 589.69 456.932 599.822 449.05C661.611 401.777 720.965 351.402 777.656 298.12C795.327 281.637 812.852 264.999 830.23 248.208C839.376 239.273 851.249 226.742 860.506 218.589ZM822.155 636.077L826.699 633.264L827.769 633.624C827.662 636.404 823.603 642.293 821.952 645.038C811.735 638.98 791.032 623.457 780.273 615.899C763.345 602.931 741.039 589.762 725.859 575.704C737.906 583.533 811.907 638.332 819.775 636.89C820.605 636.737 821.414 636.48 822.155 636.077ZM801.72 625.595C803.571 624.616 805.12 623.689 807.291 624.264C810.183 625.031 821.163 631.669 822.087 634.284C815.684 635.686 806.964 629.288 801.72 625.595ZM666.627 523.289L665.554 520.744L665.383 518.004C673.215 518.644 681.097 517.814 688.624 515.556L689.577 514.667L689.434 513.387C686.587 511.682 663.966 513.61 659.041 513.888L660.869 515.962C655.457 516.677 651.51 516.624 649.102 522.466C649.733 525.13 650.502 527.102 653.952 527.33L654.85 531.174L656.602 531.961L656.685 531.26L661.009 532.084C662.072 534.779 660.582 536.343 658.536 538.11C668.733 547.921 699.313 573.365 711.76 580.954C731.991 595.879 752.401 610.558 772.987 624.989C783.862 632.644 797.458 642.678 808.721 649.188C814.784 650.134 818.672 655.87 822.288 655.943C821.691 653.277 819.474 651.966 817.248 650.096C820.022 651.273 822.914 652.79 825.886 652.744C826.327 651.405 826.655 650.575 827.194 649.299C828.875 649.057 827.933 651.025 831.282 652.228L831.18 647.91L832.305 647.047L833.044 648.585L834.495 648.215C836.816 629.677 835.677 632.374 843.364 613.704C837.904 615.569 835.573 616.307 830.508 619.318L824.125 612.514C828.966 613.38 830.858 617.291 836.305 614.155L836.854 612.109C821.668 612.333 786.689 585.176 772.796 575.311C754.77 561.251 718.602 535.585 697.438 527.092C694.686 525.988 673.848 525.014 666.627 523.289ZM546.667 515.481C547.209 513.906 548.165 512.385 548.989 510.906L543.936 510.127C540.286 510.149 531.825 509.886 528.762 510.926L526.102 514.616C531.855 514.739 541.864 515.965 546.667 515.481ZM594.477 510.266C602.261 503.531 609.609 507.857 614.157 501.62L613.285 500.731C608.543 499.752 602.904 500.891 598.012 501.548C591.648 503.528 587.697 503.123 581.106 503.272C578.385 503.553 576.006 503.76 573.313 504.337L571.765 506.367C574.28 511.829 583.955 510.9 589.112 510.417L594.477 510.266ZM553.775 519.167L552.122 520.598C552.93 524.84 563.365 531.657 567.393 533.515L559.492 523.69C557.646 521.749 555.948 520.695 553.775 519.167ZM860.727 250.25C857.906 253.307 841.207 272.924 840.872 274.971L844.144 276.348C844.286 278.46 844.532 277.464 843.049 279.33L841.302 277.919C837.501 279.555 836.651 281.357 834.176 282.45C830.924 284.379 810.016 307.667 804.287 313.172C805.787 316.105 805.023 315.589 807.474 317.193C811.989 316.52 810.598 314.293 814.933 313.991C816.108 318.131 814.771 318.654 817.119 321.154C821.954 320.799 822.622 317.026 825.169 316.723C829.625 311.926 857.242 257.499 860.727 250.25ZM703.42 513.204C698.828 513.74 696.819 513.764 692.735 515.806L692.353 516.879C695.194 517.764 698.533 517.193 701.544 516.914C707.583 515.818 709.564 515.326 715.39 513.279C712.192 513.167 706.373 512.783 703.42 513.204Z"/><path fill="#E2E1F8" fill-opacity="0.94117647" transform="scale(4.30009 4.30009)" d="M666.627 523.289C673.848 525.014 694.686 525.988 697.438 527.092C718.602 535.585 754.77 561.251 772.796 575.311C770.12 576.492 769.675 576.153 768.323 578.349C770.391 579.364 772.085 580.248 774.079 581.399C775.468 585.548 779.325 588.426 783.103 590.328L785.18 590.391L785.836 589.133C782.953 585.494 777.918 584.107 777.153 581.769C780.344 582.393 785.638 586.39 787.812 588.813C787.878 591.225 787.47 591.865 786.625 594.19C787.378 596.937 790.385 599.32 793.854 601.211C806.307 608.001 825.404 605.402 819.885 626.226C819.819 626.474 819.217 627.139 819.062 627.324C813.648 626.2 806.223 617.518 800.041 615.992C796.452 618.547 800.694 617.546 796.236 621.214C797.644 623.67 799.218 624.2 801.72 625.595C806.964 629.288 815.684 635.686 822.087 634.284L822.155 636.077C821.414 636.48 820.605 636.737 819.775 636.89C811.907 638.332 737.906 583.533 725.859 575.704C724.998 574.274 713.832 566.173 711.406 564.202C697.917 553.246 676.023 537.333 666.627 523.289Z"/><path fill="#E2E1F8" fill-opacity="0.87058824" transform="scale(4.30009 4.30009)" d="M772.796 575.311C786.689 585.176 821.668 612.333 836.854 612.109L836.305 614.155C830.858 617.291 828.966 613.38 824.125 612.514L830.508 619.318C835.573 616.307 837.904 615.569 843.364 613.704C835.677 632.374 836.816 629.677 834.495 648.215L833.044 648.585L832.305 647.047L831.18 647.91L831.282 652.228C827.933 651.025 828.875 649.057 827.194 649.299C826.655 650.575 826.327 651.405 825.886 652.744C822.914 652.79 820.022 651.273 817.248 650.096C819.474 651.966 821.691 653.277 822.288 655.943C818.672 655.87 814.784 650.134 808.721 649.188C797.458 642.678 783.862 632.644 772.987 624.989C752.401 610.558 731.991 595.879 711.76 580.954C714.351 579.724 715.143 578.734 717.375 579.364L718.074 582.165L720.251 583.442L720.816 583.069C724.397 580.74 724.78 580.247 728.32 580.926C731.764 583.529 731.177 586.032 733.365 587.793C737.848 591.161 744.413 592.673 748.986 595.708C753.894 598.965 758.533 604.435 763.319 607.937C766.686 610.401 776.294 615.801 780.273 615.899C791.032 623.457 811.735 638.98 821.952 645.038C823.603 642.293 827.662 636.404 827.769 633.624L826.699 633.264L822.155 636.077L822.087 634.284C821.163 631.669 810.183 625.031 807.291 624.264C805.12 623.689 803.571 624.616 801.72 625.595C799.218 624.2 797.644 623.67 796.236 621.214C800.694 617.546 796.452 618.547 800.041 615.992C806.223 617.518 813.648 626.2 819.062 627.324C819.217 627.139 819.819 626.474 819.885 626.226C825.404 605.402 806.307 608.001 793.854 601.211C790.385 599.32 787.378 596.937 786.625 594.19C787.47 591.865 787.878 591.225 787.812 588.813C785.638 586.39 780.344 582.393 777.153 581.769C777.918 584.107 782.953 585.494 785.836 589.133L785.18 590.391L783.103 590.328C779.325 588.426 775.468 585.548 774.079 581.399C772.085 580.248 770.391 579.364 768.323 578.349C769.675 576.153 770.12 576.492 772.796 575.311ZM801.208 636.916L801.949 634.756C800.182 633.139 784.098 623.221 782.052 622.66L780.402 625.392C782.417 630.349 792.296 633.084 797.177 636.646L801.208 636.916Z"/><path fill="#F3D3F8" fill-opacity="0.32156864" transform="scale(4.30009 4.30009)" d="M782.052 622.66C784.098 623.221 800.182 633.139 801.949 634.756L801.208 636.916L797.177 636.646C792.296 633.084 782.417 630.349 780.402 625.392L782.052 622.66Z"/><path fill="#DFC4F6" fill-opacity="0.97254902" transform="scale(4.30009 4.30009)" d="M659.041 513.888C663.966 513.61 686.587 511.682 689.434 513.387L689.577 514.667L688.624 515.556C682.66 514.663 670.686 515.147 665.383 518.004L665.554 520.744L666.627 523.289C676.023 537.333 697.917 553.246 711.406 564.202C713.832 566.173 724.998 574.274 725.859 575.704C741.039 589.762 763.345 602.931 780.273 615.899C776.294 615.801 766.686 610.401 763.319 607.937C758.533 604.435 753.894 598.965 748.986 595.708C744.413 592.673 737.848 591.161 733.365 587.793C731.177 586.032 731.764 583.529 728.32 580.926C724.78 580.247 724.397 580.74 720.816 583.069L720.251 583.442L718.074 582.165L717.375 579.364C715.143 578.734 714.351 579.724 711.76 580.954C699.313 573.365 668.733 547.921 658.536 538.11C660.582 536.343 662.072 534.779 661.009 532.084L656.685 531.26L656.602 531.961L654.85 531.174L653.952 527.33C655.637 517.547 658.567 523.135 661.99 517.292L660.869 515.962L659.041 513.888Z"/><path fill="#AF97EB" fill-opacity="0.9137255" transform="scale(4.30009 4.30009)" d="M843.049 279.33C844.532 277.464 844.286 278.46 844.144 276.348L840.872 274.971C841.207 272.924 857.906 253.307 860.727 250.25C857.242 257.499 829.625 311.926 825.169 316.723C822.622 317.026 821.954 320.799 817.119 321.154C814.771 318.654 816.108 318.131 814.933 313.991C810.598 314.293 811.989 316.52 807.474 317.193C805.023 315.589 805.787 316.105 804.287 313.172C810.016 307.667 830.924 284.379 834.176 282.45C832.369 288.039 824.963 291.151 827.087 295.683C830.021 297.757 828.764 297.481 831.828 297.141C837.172 293.742 840.339 285.145 843.049 279.33Z"/><path fill="#E2E1F8" fill-opacity="0.28627452" transform="scale(4.30009 4.30009)" d="M598.012 501.548C602.904 500.891 608.543 499.752 613.285 500.731L614.157 501.62C609.609 507.857 602.261 503.531 594.477 510.266L589.112 510.417C589.574 508.81 590.015 507.198 590.435 505.58L589.399 504.169C586.633 503.884 583.868 503.585 581.106 503.272C587.697 503.123 591.648 503.528 598.012 501.548Z"/><path fill="#D4AFEB" fill-opacity="0.86666667" transform="scale(4.30009 4.30009)" d="M660.869 515.962L661.99 517.292C658.567 523.135 655.637 517.547 653.952 527.33C650.502 527.102 649.733 525.13 649.102 522.466C651.51 516.624 655.457 516.677 660.869 515.962Z"/><path fill="#47A2CB" fill-opacity="0.96470588" transform="scale(4.30009 4.30009)" d="M553.775 519.167C555.948 520.695 557.646 521.749 559.492 523.69L567.393 533.515C563.365 531.657 552.93 524.84 552.122 520.598L553.775 519.167Z"/><path fill="#F3D3F8" fill-opacity="0.98823529" transform="scale(4.30009 4.30009)" d="M665.383 518.004C670.686 515.147 682.66 514.663 688.624 515.556C681.097 517.814 673.215 518.644 665.383 518.004Z"/><defs><linearGradient id="gradient_0" gradientUnits="userSpaceOnUse" x1="697.99695" y1="687.05457" x2="735.7981" y2="647.96338"><stop offset="0" stop-color="#453593"/><stop offset="1" stop-color="#274AAB"/></linearGradient></defs><path fill="url(#gradient_0)" transform="scale(4.30009 4.30009)" d="M514.926 513.72C519.106 514.42 521.9 515.102 526.102 514.616C531.855 514.739 541.864 515.965 546.667 515.481C548.113 515.728 553.241 518.314 553.775 519.167L552.122 520.598C552.93 524.84 563.365 531.657 567.393 533.515L559.492 523.69L559.73 522.217C564.524 526.419 566.942 532.618 571.693 536.528C581.29 544.427 593.815 550.716 604.426 557.377C625.365 570.521 645.774 584.407 666.504 597.832C670.475 600.404 674.873 602.318 678.781 604.996C703.057 621.632 728.736 640.798 750.803 660.167C796.191 700.006 835.662 748.114 871.353 796.608C875.593 802.369 903.294 841.189 903.516 845.719C903.531 846.027 903.521 846.335 903.523 846.644C903.074 846.761 902.429 847.012 902.061 846.925C899.227 842.74 890.355 833.029 885.056 833.047C880.094 829.085 870.117 818.677 865.197 813.728C856.332 804.855 847.369 796.08 838.311 787.404C799.446 749.957 763.194 714.646 722.941 678.245C677.049 637.137 629.308 598.142 579.868 561.381C558.653 545.407 535.76 529.921 514.926 513.72Z"/><path fill="#3E40C4" transform="scale(4.30009 4.30009)" d="M665.554 520.744C672.92 516.994 695.976 525.461 702.759 522.02C721.515 512.504 718.914 515.763 734.372 528.027C744.227 535.846 772.288 557.92 784.726 557.983C802.881 569.205 816.803 577.401 835.917 587.03L836.109 589.401L835.264 589.997L833.179 589.383C837.004 596.287 848.101 602.641 854.758 606.565C855.482 606.992 854.087 608.113 856.801 608.95C857.795 612.06 859.902 621.369 859.941 624.602C868.841 667.876 878.24 710.692 889.131 753.541C892.311 766.05 897.268 779.146 901.01 791.533C901.911 794.514 905.723 805.211 905.964 807.646C906.858 810.394 908.038 813.229 908.007 816.055L903.963 816.434L901.247 815.766L899.939 817.371C901.719 824.729 904.879 831.375 906.76 839.336C904.238 836.353 898.21 821.74 896.036 817.049C892.165 811.365 885.101 793.833 881.858 786.961C868.025 757.646 855.639 727.549 840.966 698.611C834.307 685.478 828.275 671.233 819.58 659.397C816.546 655.268 812.691 652.366 808.721 649.188C814.784 650.134 818.672 655.87 822.288 655.943C821.691 653.277 819.474 651.966 817.248 650.096C820.022 651.273 822.914 652.79 825.886 652.744C826.327 651.405 826.655 650.575 827.194 649.299C828.875 649.057 827.933 651.025 831.282 652.228L831.18 647.91L832.305 647.047L833.044 648.585L834.495 648.215C836.816 629.677 835.677 632.374 843.364 613.704C837.904 615.569 835.573 616.307 830.508 619.318L824.125 612.514C828.966 613.38 830.858 617.291 836.305 614.155L836.854 612.109C821.668 612.333 786.689 585.176 772.796 575.311C754.77 561.251 718.602 535.585 697.438 527.092C694.686 525.988 673.848 525.014 666.627 523.289L665.554 520.744Z"/><path fill="#4D75D6" transform="scale(4.30009 4.30009)" d="M808.721 649.188C814.784 650.134 818.672 655.87 822.288 655.943C821.691 653.277 819.474 651.966 817.248 650.096C820.022 651.273 822.914 652.79 825.886 652.744C826.327 651.405 826.655 650.575 827.194 649.299C828.875 649.057 827.933 651.025 831.282 652.228L831.18 647.91L832.305 647.047L833.044 648.585L834.495 648.215C838.125 651.955 837.323 678.55 844.174 692.036L844.025 693.061L841.756 690.087L840.603 690.145C839.346 696.774 867.792 745.337 871.713 755.631C873.176 759.473 877.673 766.044 878.599 770.553C877.871 776.855 893.893 804.133 896.036 817.049C892.165 811.365 885.101 793.833 881.858 786.961C868.025 757.646 855.639 727.549 840.966 698.611C834.307 685.478 828.275 671.233 819.58 659.397C816.546 655.268 812.691 652.366 808.721 649.188Z"/><path fill="#4D75D6" transform="scale(4.30009 4.30009)" d="M903.963 816.434C900.338 807.753 883.267 748.893 882.573 741.536C880.168 716.029 855.399 644.461 859.941 624.602C868.841 667.876 878.24 710.692 889.131 753.541C892.311 766.05 897.268 779.146 901.01 791.533C901.911 794.514 905.723 805.211 905.964 807.646C906.858 810.394 908.038 813.229 908.007 816.055L903.963 816.434Z"/><path fill="#84B2DB" transform="scale(4.30009 4.30009)" d="M896.036 817.049C893.893 804.133 877.871 776.855 878.599 770.553C881.617 776.383 900.953 812.508 901.247 815.766L899.939 817.371C901.719 824.729 904.879 831.375 906.76 839.336C904.238 836.353 898.21 821.74 896.036 817.049Z"/><path fill="#BA9BEF" transform="scale(4.30009 4.30009)" d="M575.905 498.968C593.628 480.23 623.959 462.53 645.368 445.871C677.693 420.719 708.838 395.253 740.074 368.728C761.685 350.376 784.162 333.179 804.287 313.172C805.787 316.105 805.023 315.589 807.474 317.193C811.989 316.52 810.598 314.293 814.933 313.991C816.108 318.131 814.771 318.654 817.119 321.154C821.954 320.799 822.622 317.026 825.169 316.723C816.704 332.824 796.63 367.899 783.017 378.163C774.872 379.769 695.57 447.521 682.989 456.425C680.756 458.006 643.943 485.733 641.829 487.743L641.788 489.002C621.68 499.221 613.48 495.59 597.719 500.484L598.012 501.548C591.648 503.528 587.697 503.123 581.106 503.272C578.385 503.553 576.006 503.76 573.313 504.337L574.296 502.361C576.29 500.901 577.345 501.064 579.835 500.934L580.739 500.891L578.489 499.805L579.981 500.78L579.215 500.776L578.868 499.95L575.905 498.968Z"/><path fill="#8265D4" transform="scale(4.30009 4.30009)" d="M589.893 500.087C612.834 495.452 617.992 496.775 641.829 487.743L641.788 489.002C621.68 499.221 613.48 495.59 597.719 500.484L589.893 500.087Z"/><path fill="#3E40C4" transform="scale(4.30009 4.30009)" d="M860.506 218.589C860.29 222.438 859.885 221.067 857.825 224.001C836.903 253.794 809.863 274.043 784.296 299.123L744.481 338.76C732.491 350.716 721.226 363.916 706.458 372.021L706.964 372.756L709.537 373.2L709.109 373.112C708.49 374.457 708.578 375.029 707.422 375.406C702.241 377.094 680.334 399.863 677.528 399.944L679.548 395.9C675.796 398.527 645.408 423.022 644.98 424.489C653.249 420.701 666.507 406.25 671.539 405.571C666.102 412.272 640.222 431.063 631.982 438.328C626.039 443.569 616.917 452.293 610.747 456.502L578.437 478.342C573.707 481.526 567.52 484.905 563.387 488.573L564.25 489.829C563.68 491.731 563.546 491.809 562.256 493.37C565.375 497.16 566.488 493.491 566.284 496.802C561.867 503.769 556.051 505.284 550.582 513.58C551.11 514.281 551.48 514.606 552.262 514.998C556.423 517.084 556.765 518.9 559.73 522.217L559.492 523.69C557.646 521.749 555.948 520.695 553.775 519.167C553.241 518.314 548.113 515.728 546.667 515.481C547.209 513.906 548.165 512.385 548.989 510.906L543.936 510.127C540.286 510.149 531.825 509.886 528.762 510.926L526.102 514.616C521.9 515.102 519.106 514.42 514.926 513.72L514.814 512.295C515.933 509.522 589.69 456.932 599.822 449.05C661.611 401.777 720.965 351.402 777.656 298.12C795.327 281.637 812.852 264.999 830.23 248.208C839.376 239.273 851.249 226.742 860.506 218.589Z"/><path fill="#3B5DC4" transform="scale(4.30009 4.30009)" d="M552.084 495.667C554.638 494.066 556.616 492.21 559.248 492.097L558.914 494.198C563.039 497.775 562.066 494.297 563.538 496.708C560.95 499.508 551.586 510.263 548.989 510.906L543.936 510.127C541.075 509.441 540.268 509.73 538.34 507.878C539.853 505.608 543.139 504.726 546.018 503.429C548.205 500.009 549.339 498.695 552.084 495.667Z"/><path fill="#4D75D6" transform="scale(4.30009 4.30009)" d="M552.084 495.667C554.638 494.066 556.616 492.21 559.248 492.097L558.914 494.198C557.846 497.064 555.869 498.306 553.49 500.333L551.736 500.473C550.969 498.507 551.437 497.827 552.084 495.667Z"/><path fill="#FEFEFE" transform="scale(4.30009 4.30009)" d="M514.814 512.295C517.553 511.889 526.507 510.335 528.762 510.926L526.102 514.616C521.9 515.102 519.106 514.42 514.926 513.72L514.814 512.295Z"/><path fill="#6E40E3" transform="scale(4.30009 4.30009)" d="M822.383 365.436C824.418 366.339 827.916 368.173 829.956 368.174C835.92 374.342 837.173 413.358 849.849 417.821L851.969 419.163L851.383 420.436C845.505 420.496 842.468 424.968 839.131 429.853C837.891 431.153 834.46 434.899 833.234 435.757C824.981 439.829 816.97 445.224 809.265 450.289C778.803 470.311 749.31 491.968 719.625 513.124C726.732 516.931 737.28 524.757 744.165 529.519C757.832 538.796 771.354 548.285 784.726 557.983C772.288 557.92 744.227 535.846 734.372 528.027C718.914 515.763 721.515 512.504 702.759 522.02C695.976 525.461 672.92 516.994 665.554 520.744L665.383 518.004C673.215 518.644 681.097 517.814 688.624 515.556L689.577 514.667L689.434 513.387C686.587 511.682 663.966 513.61 659.041 513.888C652.655 514.454 651.577 511.012 645.803 511.669C646.413 511.029 648.805 508.573 649.736 508.266C663.664 503.672 684.161 504.919 698.539 506.816C700.714 507.103 706.367 511.367 709.219 511.888C710.986 512.21 713.676 512.366 714.834 511.501C722.014 506.137 728.808 499.945 736.182 494.884C760.719 478.249 785.413 461.845 810.259 445.675C818.796 440.129 834.581 437.571 837.106 427.539C835.945 422.857 834.663 422.678 830.917 418.978L831.003 416.666C832.464 415.293 833.132 414.816 834.787 413.671C836.952 408.798 833.073 397.079 832.305 389.119L830.966 388.037C825.334 388.018 794.431 416.915 787.384 422.404C782.34 426.333 773.292 430.607 768.749 434.908C777.17 427.556 786.566 421.312 794.7 413.808C806.286 403.12 818.526 394.029 830.819 384.199C831.443 377.805 829.81 370.454 822.668 367.124C821.705 366.675 821.477 367.731 819.294 366.48L822.383 365.436ZM701.544 516.914C707.583 515.818 709.564 515.326 715.39 513.279C712.192 513.167 706.373 512.783 703.42 513.204C698.828 513.74 696.819 513.764 692.735 515.806L692.353 516.879C695.194 517.764 698.533 517.193 701.544 516.914Z"/><defs><linearGradient id="gradient_1" gradientUnits="userSpaceOnUse" x1="741.06635" y1="418.23627" x2="736.25165" y2="411.87033"><stop offset="0" stop-color="#B79EF2"/><stop offset="1" stop-color="#A17DE6"/></linearGradient></defs><path fill="url(#gradient_1)" transform="scale(4.30009 4.30009)" d="M783.017 378.163L782.978 379.643C784.883 379.746 798.308 371.113 802.105 369.175C802.851 370.689 803.284 372.007 804.618 372.983C779.024 387.397 762.725 400.832 739.712 418.66C720.186 433.952 700.456 448.981 680.527 463.744C671.926 470.103 651.973 485.166 642.9 490.142L641.788 489.002L641.829 487.743C643.943 485.733 680.756 458.006 682.989 456.425C695.57 447.521 774.872 379.769 783.017 378.163Z"/><path fill="#C592DB" transform="scale(4.30009 4.30009)" d="M641.788 489.002L642.9 490.142C627.017 499.33 613.433 509.157 594.477 510.266C602.261 503.531 609.609 507.857 614.157 501.62L613.285 500.731C608.543 499.752 602.904 500.891 598.012 501.548L597.719 500.484C613.48 495.59 621.68 499.221 641.788 489.002Z"/><path fill="#AF97EB" transform="scale(4.30009 4.30009)" d="M645.803 511.669C651.577 511.012 652.655 514.454 659.041 513.888L660.869 515.962C655.457 516.677 651.51 516.624 649.102 522.466C649.733 525.13 650.502 527.102 653.952 527.33L654.85 531.174L656.602 531.961L656.685 531.26L661.009 532.084C662.072 534.779 660.582 536.343 658.536 538.11C650.733 529.895 644.212 523.652 645.803 511.669Z"/><path fill="#3E40C4" transform="scale(4.30009 4.30009)" d="M907.11 171.637L908.795 170.117C911.933 170.426 912.974 171.998 915.183 174.679L915.569 175.154C922.11 179.991 931.415 190.114 937.425 196.24L978.719 238.559C1007.89 267.94 1041.44 298.688 1072.26 326.247C1126.25 374.191 1181.99 420.12 1239.38 463.939C1253.3 474.386 1267.43 484.639 1281.71 494.588C1290.28 500.558 1301.7 506.714 1309.65 512.986C1308.02 516.066 1296.58 521.552 1293.02 523.7C1263.84 541.321 1237.31 561.57 1210.47 582.585C1138.42 640.107 1069.01 700.863 1002.46 764.667C988.268 778.171 974.251 791.86 960.414 805.729C953.28 812.915 945.129 821.93 937.967 828.585C930.028 838.172 919.05 849.377 910.412 858.686C901.835 850.264 893.382 841.717 885.056 833.047C890.355 833.029 899.227 842.74 902.061 846.925C903.626 849.627 905.022 850.45 907.457 852.3L908.627 852.077C909.561 848.596 908.191 846.148 908.196 842.485L908.899 838.351C909.743 837.56 909.399 837.771 910.565 837.402L910.633 837.832L911.205 832.727L912.693 833.531C912.755 835.18 912.733 836.824 913.064 838.425C913.051 842.226 911.552 844.551 912.666 848.854L912.544 846.326L914.233 847.845L913.204 848.881C918.178 843.4 930.842 818.546 935.854 810.312C946.333 793.476 957.632 777.165 969.71 761.437C1013.85 703.043 1060.61 658.748 1119.19 615.548C1150.66 592.347 1178.88 569.91 1214.28 552.451C1222.74 548.279 1244.38 535.255 1252.28 532.625C1256.04 531.719 1260.2 529.157 1263.67 527.256C1266.15 525.869 1269.64 524.233 1269.72 520.953L1267.96 519.411C1266.4 519.557 1265.61 519.892 1264.11 520.335L1264.42 513.938C1261.09 511.722 1254.99 513.773 1251.3 514.694L1252.1 510.845L1251.17 510.756C1247.67 505.944 1244.94 502.861 1238.34 504.012L1237.64 505.665C1239.28 509.114 1240.54 508.918 1244.49 510.881C1238.38 511.325 1233.49 511.122 1227.4 510.916L1226.08 511.402C1210.13 508.502 1200.84 505.392 1187.72 495.761C1175.62 488.622 1157.78 475.678 1145.76 467.338C1141.26 461.761 1122.48 451.189 1117.45 444.165C1112.57 439.503 1105.46 434.051 1100.13 429.822C1091.95 427.464 1039.47 377.095 1028.25 368.687C1021.33 368.862 1007.08 358.026 999.859 358.97L999.603 357.86C993.465 348.065 990.178 334.904 984.304 324.195C977.385 322.668 979.98 313.357 973.594 308.321C971.006 304.446 966.998 293.896 964.026 288.506C963.748 283.922 964.406 282.829 960.74 280.562C958.102 277.713 958.39 274.383 957.381 273.2C953.584 268.742 944.966 245.406 942.252 242.93L939.575 243.569C940.733 238.606 940.387 243.458 943.562 238.411C939.363 229.675 918.163 193.442 918.214 188.464C916.041 184.02 915.041 182.279 911.868 178.558L911.303 178.201C909.136 185.049 908.891 190.142 907.441 196.426C905.407 205.239 898.468 222.704 894.029 230.229L892.86 229.047C896.311 220.748 900.116 212.617 903.428 204.256C906.469 196.58 904.896 197.501 902.653 190.465C897.027 192.75 869.573 256.272 863.463 265.718C861.649 268.523 863.239 274.473 860.896 278.154L860.425 278.294C855.182 279.913 851.104 292.459 846.912 298.312C847.06 295.69 849.036 291.762 850.211 289.264C865.629 256.504 880.536 223.522 897.529 191.534C900.686 185.592 905.007 177.865 907.11 171.637Z"/><path fill="#DFC4F6" transform="scale(4.30009 4.30009)" d="M907.11 171.637L908.795 170.117C911.933 170.426 912.974 171.998 915.183 174.679L915.569 175.154C916.697 178.523 923.956 188.712 926.275 190.389L928.982 194.654C940.792 208.085 951.56 223.255 963.541 236.838C1027.66 309.221 1098.15 375.689 1174.17 435.438C1183.69 442.986 1245.64 489.153 1247.93 495.371C1245.94 495.753 1245.49 495.802 1243.46 495.863L1242.6 497.069C1243.7 499.605 1243.68 499.869 1245.9 501.294C1248.21 501.067 1248.63 500.671 1250.73 499.549C1252.97 502.114 1252.32 505.097 1252.19 508.743L1252.1 510.845L1251.17 510.756C1247.67 505.944 1244.94 502.861 1238.34 504.012L1237.64 505.665C1239.28 509.114 1240.54 508.918 1244.49 510.881C1238.38 511.325 1233.49 511.122 1227.4 510.916L1226.08 511.402C1210.13 508.502 1200.84 505.392 1187.72 495.761C1175.62 488.622 1157.78 475.678 1145.76 467.338C1141.26 461.761 1122.48 451.189 1117.45 444.165C1112.57 439.503 1105.46 434.051 1100.13 429.822C1091.95 427.464 1039.47 377.095 1028.25 368.687C1021.33 368.862 1007.08 358.026 999.859 358.97L999.603 357.86C993.465 348.065 990.178 334.904 984.304 324.195C977.385 322.668 979.98 313.357 973.594 308.321C971.006 304.446 966.998 293.896 964.026 288.506C963.748 283.922 964.406 282.829 960.74 280.562C958.102 277.713 958.39 274.383 957.381 273.2C953.584 268.742 944.966 245.406 942.252 242.93L939.575 243.569C940.733 238.606 940.387 243.458 943.562 238.411C939.363 229.675 918.163 193.442 918.214 188.464C916.041 184.02 915.041 182.279 911.868 178.558L911.303 178.201C909.136 185.049 908.891 190.142 907.441 196.426C905.407 205.239 898.468 222.704 894.029 230.229L892.86 229.047C896.311 220.748 900.116 212.617 903.428 204.256C906.469 196.58 904.896 197.501 902.653 190.465C897.027 192.75 869.573 256.272 863.463 265.718C861.649 268.523 863.239 274.473 860.896 278.154L860.425 278.294C855.182 279.913 851.104 292.459 846.912 298.312C847.06 295.69 849.036 291.762 850.211 289.264C865.629 256.504 880.536 223.522 897.529 191.534C900.686 185.592 905.007 177.865 907.11 171.637Z"/><path fill="#3E40C4" transform="scale(4.30009 4.30009)" d="M918.214 188.464C937.973 218.65 954.277 248.598 971.883 279.769C981.084 302.519 997.45 323.454 1010.95 343.99C1015.12 350.324 1023.59 363.57 1028.25 368.687C1021.33 368.862 1007.08 358.026 999.859 358.97L999.603 357.86C993.465 348.065 990.178 334.904 984.304 324.195C977.385 322.668 979.98 313.357 973.594 308.321C971.006 304.446 966.998 293.896 964.026 288.506C963.748 283.922 964.406 282.829 960.74 280.562C958.102 277.713 958.39 274.383 957.381 273.2C953.584 268.742 944.966 245.406 942.252 242.93L939.575 243.569C940.733 238.606 940.387 243.458 943.562 238.411C939.363 229.675 918.163 193.442 918.214 188.464Z"/><path fill="#C592DB" transform="scale(4.30009 4.30009)" d="M943.562 238.411C950.611 251.18 957.566 265.838 964.087 279.018C968.958 288.472 981.038 314.002 984.304 324.195C977.385 322.668 979.98 313.357 973.594 308.321C971.006 304.446 966.998 293.896 964.026 288.506C963.748 283.922 964.406 282.829 960.74 280.562C958.102 277.713 958.39 274.383 957.381 273.2C953.584 268.742 944.966 245.406 942.252 242.93L939.575 243.569C940.733 238.606 940.387 243.458 943.562 238.411Z"/><path fill="#D4AFEB" transform="scale(4.30009 4.30009)" d="M971.883 279.769C976.137 281.962 1008.18 328.188 1013.99 336.208C1033.18 362.713 1055.68 386.154 1079.66 408.4C1088.66 416.747 1098.14 424.576 1107.05 433.021C1105.31 432.077 1101.89 429.943 1100.13 429.822C1091.95 427.464 1039.47 377.095 1028.25 368.687C1023.59 363.57 1015.12 350.324 1010.95 343.99C997.45 323.454 981.084 302.519 971.883 279.769Z"/><path fill="#D4AFEB" transform="scale(4.30009 4.30009)" d="M1117.45 444.165C1116.93 442.527 1116.63 441.889 1115.59 440.527C1116.01 440.551 1138.42 455.89 1140.86 457.539L1187.46 489.083L1186.18 490.697C1187.31 492.764 1187.73 493.404 1187.72 495.761C1175.62 488.622 1157.78 475.678 1145.76 467.338C1141.26 461.761 1122.48 451.189 1117.45 444.165Z"/><path fill="#AF97EB" transform="scale(4.30009 4.30009)" d="M1187.46 489.083C1195.46 494.133 1218.82 508.012 1227.4 510.916L1226.08 511.402C1210.13 508.502 1200.84 505.392 1187.72 495.761C1187.73 493.404 1187.31 492.764 1186.18 490.697L1187.46 489.083Z"/><path fill="#D4AFEB" transform="scale(4.30009 4.30009)" d="M928.982 194.654C940.792 208.085 951.56 223.255 963.541 236.838C961.502 236.72 960.547 237.064 958.536 237.524C951.824 232.838 930.306 200.514 928.982 194.654Z"/><path fill="#F3D3F8" transform="scale(4.30009 4.30009)" d="M1082.71 367.406C1087.06 367.244 1105.69 389.378 1114.15 394.015L1112.22 389.638C1116.69 390.112 1127.69 407.268 1135.61 410.016C1143.55 414.447 1150.44 423.727 1157.47 429.231C1166.91 436.632 1175.26 443.685 1185.64 449.55C1187.09 450.325 1191.25 457.815 1192.23 457.991C1202.95 459.914 1203.69 466.802 1211.33 471.869C1216.52 475.311 1219.93 476.722 1224.67 480.605C1227.95 483.294 1229.79 485.977 1233.23 487.943C1234.86 488.72 1234.46 488.199 1235.85 489.697C1238.1 491.701 1239.26 491.982 1239.77 494.442L1238.28 494.783C1233.9 493.028 1216.52 479.033 1211.62 475.42C1165.61 441.501 1124.56 406.133 1082.71 367.406Z"/><path fill="#6B54CF" transform="scale(4.30009 4.30009)" d="M915.569 175.154C922.11 179.991 931.415 190.114 937.425 196.24L978.719 238.559C1007.89 267.94 1041.44 298.688 1072.26 326.247C1126.25 374.191 1181.99 420.12 1239.38 463.939C1253.3 474.386 1267.43 484.639 1281.71 494.588C1290.28 500.558 1301.7 506.714 1309.65 512.986C1308.02 516.066 1296.58 521.552 1293.02 523.7C1263.84 541.321 1237.31 561.57 1210.47 582.585C1138.42 640.107 1069.01 700.863 1002.46 764.667C988.268 778.171 974.251 791.86 960.414 805.729C953.28 812.915 945.129 821.93 937.967 828.585C938.856 823.975 959.997 803.589 964.722 798.839C1019.46 743.615 1076.64 690.878 1136.11 640.786C1179.01 604.351 1221.68 569.866 1266.74 536.1C1273 531.406 1280.42 527.363 1287.07 523.204C1289.16 521.898 1292.98 521.72 1294.03 520.519C1287.45 522.907 1282.17 520.021 1276.7 520.942C1271.82 521.762 1270.91 526.313 1263.67 527.256C1266.15 525.869 1269.64 524.233 1269.72 520.953L1267.96 519.411C1266.4 519.557 1265.61 519.892 1264.11 520.335L1264.42 513.938C1261.09 511.722 1254.99 513.773 1251.3 514.694L1252.1 510.845L1252.19 508.743C1252.32 505.097 1252.97 502.114 1250.73 499.549C1248.63 500.671 1248.21 501.067 1245.9 501.294C1243.68 499.869 1243.7 499.605 1242.6 497.069L1243.46 495.863C1245.49 495.802 1245.94 495.753 1247.93 495.371C1245.64 489.153 1183.69 442.986 1174.17 435.438C1098.15 375.689 1027.66 309.221 963.541 236.838C951.56 223.255 940.792 208.085 928.982 194.654L926.275 190.389C923.956 188.712 916.697 178.523 915.569 175.154Z"/><path fill="#8265D4" transform="scale(4.30009 4.30009)" d="M915.569 175.154C922.11 179.991 931.415 190.114 937.425 196.24L978.719 238.559C1007.89 267.94 1041.44 298.688 1072.26 326.247C1126.25 374.191 1181.99 420.12 1239.38 463.939C1253.3 474.386 1267.43 484.639 1281.71 494.588C1290.28 500.558 1301.7 506.714 1309.65 512.986C1308.02 516.066 1296.58 521.552 1293.02 523.7C1263.84 541.321 1237.31 561.57 1210.47 582.585C1138.42 640.107 1069.01 700.863 1002.46 764.667C988.268 778.171 974.251 791.86 960.414 805.729C953.28 812.915 945.129 821.93 937.967 828.585C938.856 823.975 959.997 803.589 964.722 798.839C1019.46 743.615 1076.64 690.878 1136.11 640.786C1179.01 604.351 1221.68 569.866 1266.74 536.1C1273 531.406 1280.42 527.363 1287.07 523.204C1289.16 521.898 1292.98 521.72 1294.03 520.519C1287.45 522.907 1282.17 520.021 1276.7 520.942C1271.82 521.762 1270.91 526.313 1263.67 527.256C1266.15 525.869 1269.64 524.233 1269.72 520.953L1267.96 519.411C1266.4 519.557 1265.61 519.892 1264.11 520.335L1264.42 513.938C1267.47 514.262 1272.22 513.793 1275.43 513.581L1276.33 513.136C1279.9 511.306 1285.43 510.782 1289.53 510.152C1285.94 503.573 1273.88 499.179 1268.42 494.352C1254.13 479.847 1237.34 470.327 1221.91 457.919C1181.93 425.76 1140.55 394.948 1103.77 359.002C1096.69 353.59 1089.43 348.11 1082.67 342.306C1043.15 308.38 1007.03 271.01 969.753 234.672C955.683 220.957 942.83 203.453 928.395 190.074L926.275 190.389C923.956 188.712 916.697 178.523 915.569 175.154Z"/><path fill="#FEFEFE" transform="scale(4.30009 4.30009)" d="M1289.53 510.152C1297.93 510.573 1303.08 510.591 1311.06 513.661C1303.74 514.321 1282.6 515.791 1276.33 513.136C1279.9 511.306 1285.43 510.782 1289.53 510.152Z"/><path fill="#3E40C4" transform="scale(4.30009 4.30009)" d="M1252.19 508.743C1252.58 506.988 1252.98 505.238 1253.4 503.494C1255.42 503.212 1258.36 505.607 1259.89 507.071C1264.16 511.182 1271.38 509.947 1275.43 513.581C1272.22 513.793 1267.47 514.262 1264.42 513.938C1261.09 511.722 1254.99 513.773 1251.3 514.694L1252.1 510.845L1252.19 508.743Z"/><defs><linearGradient id="gradient_2" gradientUnits="userSpaceOnUse" x1="864.87152" y1="546.12701" x2="965.98444" y2="423.65448"><stop offset="0" stop-color="#5C2390"/><stop offset="1" stop-color="#8632B4"/></linearGradient></defs><path fill="url(#gradient_2)" transform="scale(4.30009 4.30009)" d="M866.203 415.392C895.798 404.862 916.814 404.683 946.421 413.801C953.097 415.509 960.776 420.58 965.358 421.2L966.239 421.212C968.799 425.863 977.885 433.209 983.108 434.418L983.743 435.73C994.026 448.361 999.119 454.934 1004.99 469.98C1011 490.766 1015.16 513.907 1008.41 535.238C1005.67 547.621 998.882 563.952 991.305 574.186C989.476 576.689 983.296 584.367 982.185 586.279C978.595 587.23 975.687 589.437 972.452 588.702C973.224 585.123 983.123 579.313 986.636 576.913C986.544 575.47 986.188 569.879 986.915 568.786C995.355 556.086 1002.78 530.366 999.95 514.97L998.971 514.355C992.585 516.431 985.222 526.952 979.366 531.175C971.839 536.605 961.278 538.475 954.255 543.291C934.126 539.13 942.264 545.095 922.615 547.715C915.069 548.721 911.376 544.628 903.793 542.835C897.772 541.411 886.161 540.853 881.156 539.122C876.421 532.814 877.616 538.49 871.495 537.635C871.494 537.635 865.72 532.451 865.138 531.928C865.568 533.125 865.935 533.84 866.489 534.973L864.734 535.325C864.76 536.282 864.86 535.795 864.322 536.758C861.425 536.355 860.484 536.266 858.305 534.275L854.492 534.679C855.577 536.799 855.461 535.767 855.36 537.807C850.324 537.344 846.98 529.165 842.641 526.536C840.35 525.147 836.44 506.45 837.327 504.178L839.379 504.863L840.321 503.76L837.697 500.432C838.975 497.527 838.449 500.898 841.691 497.198C841.202 494.529 839.418 481.906 838.166 480.767C836.282 483.13 835.218 484.953 833.66 487.525C832.705 484.183 838.374 475.258 837.71 473.024C835.788 477.248 832.565 484.332 829.364 487.495L828.131 487.486L827.654 486.034C829.957 474.973 835.062 461.284 838.349 450.241C840.836 441.885 863.443 434.248 865.274 430.962C864.682 429.845 864.326 428.955 863.495 428.022L861.888 428.78C859.696 424.898 855.085 423.98 851.046 423.419C863.833 420.459 858.318 427.936 875.237 418.479C870.471 418.28 869.581 418.327 866.203 415.392ZM959.795 490.679C955.579 482 950.733 479.867 942.25 476.621C932.535 478.254 928.528 479.543 920.372 484.949C936.02 490.043 943.14 490.581 959.795 490.679ZM863.759 462.539C868.965 460.748 870.176 460.55 872.839 455.368C874.515 452.109 876.592 444.283 872.567 442.218C866.046 447.365 856.488 453.682 863.759 462.539ZM855.98 483.132C860.554 482.735 863.282 482.96 865.593 478.403C864.484 474.748 862.009 475.355 858.655 475.349C856.108 477.324 853.53 479.258 850.921 481.15L850.91 482.518C853.201 483.23 853.539 483.151 855.98 483.132Z"/><path fill="#6E40E3" transform="scale(4.30009 4.30009)" d="M1004.99 469.98C1011 490.766 1015.16 513.907 1008.41 535.238C1005.67 547.621 998.882 563.952 991.305 574.186C986.737 567.978 993.377 561.435 995.635 555.184C1000.94 540.842 1002.59 525.463 999.666 510.416C998.269 503.224 995.631 497.438 999.724 491.214C1002.21 481.735 1000.27 478.118 1001.79 471.479L1004.99 469.98Z"/><path fill="#967AE4" transform="scale(4.30009 4.30009)" d="M1004.99 469.98C1011 490.766 1015.16 513.907 1008.41 535.238C1007.91 534.699 1007.02 533.518 1006.98 532.824C1006.09 517.99 1006.86 504.84 999.724 491.214C1002.21 481.735 1000.27 478.118 1001.79 471.479L1004.99 469.98Z"/><path fill="#C592DB" transform="scale(4.30009 4.30009)" d="M866.203 415.392C895.798 404.862 916.814 404.683 946.421 413.801L945.698 413.816C918.84 414.213 904.753 404.735 875.237 418.479C870.471 418.28 869.581 418.327 866.203 415.392Z"/><path fill="#C592DB" transform="scale(4.30009 4.30009)" d="M884.262 433.707C900.839 425.414 918.495 426.814 935.62 431.786C943.074 434.643 947.896 436.441 954.829 440.282C970.952 448.511 978.117 464.204 983.448 480.654C984.868 484.955 986.059 489.328 987.017 493.754L968.395 491.438L961.257 491.369L959.795 490.679C955.579 482 950.733 479.867 942.25 476.621C932.535 478.254 928.528 479.543 920.372 484.949L917.819 484.958C909.629 482.432 887.053 482.321 877.677 482.079C879.69 465.931 881.885 449.806 884.262 433.707Z"/><path fill="#D4AFEB" transform="scale(4.30009 4.30009)" d="M935.62 431.786C943.074 434.643 947.896 436.441 954.829 440.282C970.952 448.511 978.117 464.204 983.448 480.654C984.868 484.955 986.059 489.328 987.017 493.754L968.395 491.438C966.832 473.014 956.39 457.211 943.485 444.641C937.832 440.718 924.331 435.562 921.38 433.234C924.06 432.045 929.531 433.183 935.62 431.786Z"/><path fill="#D4AFEB" transform="scale(4.30009 4.30009)" d="M917.819 484.958C920.192 482.393 921.882 481.165 924.276 479.067C931.534 472.705 938.943 479.234 942.62 470.645C953.679 466.369 965.445 481.662 963.237 490.315L961.257 491.369L959.795 490.679C955.579 482 950.733 479.867 942.25 476.621C932.535 478.254 928.528 479.543 920.372 484.949L917.819 484.958Z"/><path fill="#D4AFEB" fill-opacity="0.17254902" transform="scale(4.30009 4.30009)" d="M872.567 442.218C876.592 444.283 874.515 452.109 872.839 455.368C870.176 460.55 868.965 460.748 863.759 462.539C856.488 453.682 866.046 447.365 872.567 442.218Z"/><path fill="#D4AFEB" fill-opacity="0.35294119" transform="scale(4.30009 4.30009)" d="M858.655 475.349C862.009 475.355 864.484 474.748 865.593 478.403C863.282 482.96 860.554 482.735 855.98 483.132C853.539 483.151 853.201 483.23 850.91 482.518L850.921 481.15C853.53 479.258 856.108 477.324 858.655 475.349Z"/><path fill="#C592DB" transform="scale(4.30009 4.30009)" d="M835.288 470.89L835.767 471.369C836.014 473.684 831.522 481.953 830.186 484.775L829.282 483.62C829.873 478.153 831.851 475.036 835.288 470.89Z"/><path fill="#3E40C4" transform="scale(4.30009 4.30009)" d="M894.029 230.229C898.468 222.704 905.407 205.239 907.441 196.426C908.891 190.142 909.136 185.049 911.303 178.201L911.868 178.558C915.041 182.279 916.041 184.02 918.214 188.464C918.163 193.442 939.363 229.675 943.562 238.411C940.387 243.458 940.733 238.606 939.575 243.569C942.214 250.696 949.724 262.554 948.007 267.634L947.079 268.332C957.02 291.638 969.552 314.223 980.485 337.096C981.904 340.065 983.416 343.719 985.044 346.52C986.358 349.89 989.437 357.142 989.941 360.366C986.064 371.16 978.237 416.366 967.748 419.609L966.976 419.047C966.667 416.759 966.128 411.633 965.663 409.603L963.029 413.211C954.048 376.851 951.095 336.513 940.592 300.008C937.231 288.325 933.434 275.116 931.003 263.276C926.534 253.142 922.158 223.467 912.912 216.232C903.065 214.295 897.555 241.99 895.687 249.073C885.637 287.077 876.097 325.213 867.07 363.473C863.099 379.811 858.609 407.701 852.048 421.274C856.787 419.364 861.506 417.403 866.203 415.392C869.581 418.327 870.471 418.28 875.237 418.479C858.318 427.936 863.833 420.459 851.046 423.419C847.932 426.032 844.696 428.971 840.795 430.091L839.131 429.853C842.468 424.968 845.505 420.496 851.383 420.436L851.969 419.163L849.849 417.821C837.173 413.358 835.92 374.342 829.956 368.174C826.948 358.11 869.691 279.257 875.725 266.17C879.88 257.161 888.4 237.677 892.86 229.047L894.029 230.229Z"/><path fill="#6B54CF" transform="scale(4.30009 4.30009)" d="M851.969 419.163C850.78 404.832 888.243 253.421 895.687 249.073C885.637 287.077 876.097 325.213 867.07 363.473C863.099 379.811 858.609 407.701 852.048 421.274C856.787 419.364 861.506 417.403 866.203 415.392C869.581 418.327 870.471 418.28 875.237 418.479C858.318 427.936 863.833 420.459 851.046 423.419C847.932 426.032 844.696 428.971 840.795 430.091L839.131 429.853C842.468 424.968 845.505 420.496 851.383 420.436L851.969 419.163Z"/><path fill="#967AE4" transform="scale(4.30009 4.30009)" d="M931.003 263.276L931.908 263.016C944.85 294.853 953.28 338.742 960.506 372.467C962.629 382.375 963.708 401.829 965.663 409.603L963.029 413.211C954.048 376.851 951.095 336.513 940.592 300.008C937.231 288.325 933.434 275.116 931.003 263.276Z"/><path fill="#D4AFEB" transform="scale(4.30009 4.30009)" d="M911.868 178.558C915.041 182.279 916.041 184.02 918.214 188.464C918.163 193.442 939.363 229.675 943.562 238.411C940.387 243.458 940.733 238.606 939.575 243.569C942.214 250.696 949.724 262.554 948.007 267.634L947.079 268.332C933.205 239.408 919.433 209.635 911.868 178.558Z"/><path fill="#322B82" transform="scale(4.30009 4.30009)" d="M818.587 540.978C819.362 550.033 835.188 556.949 841.154 560.944C845.91 564.129 867.253 581.81 869.46 585.629L869.43 586.49C862.327 586.117 855.064 572.875 849.129 571.206C847.896 573.103 848.132 572.079 848.517 574.399L849.407 575.345C848.371 583.682 854.398 588.96 854.827 597.067C858.56 601.47 888.724 609.249 895.926 608.392C898.322 608.107 910.266 608.101 911.277 608.651C899.578 611.52 884.506 609.682 873.243 605.992C869.995 604.928 863.932 602.78 860.932 602.878C857.58 601.139 858.651 601.107 855.694 601.482C855.465 604.194 856.169 606.294 856.801 608.95C854.087 608.113 855.482 606.992 854.758 606.565C848.101 602.641 837.004 596.287 833.179 589.383L835.264 589.997L836.109 589.401L835.917 587.03L837.255 586.846L833.787 582.116C833.365 575.975 822.046 559.978 818.693 549.579C818.897 546.967 818.676 543.649 818.587 540.978Z"/><path fill="#BA9BEF" transform="scale(4.30009 4.30009)" d="M985.044 346.52L987.405 347.274C988.429 349.619 988.624 350.324 989.149 352.833L990.381 354.02C992.079 357.814 991.245 357.414 994.297 359.446C996.375 359.505 997.947 359.747 999.859 358.97C1007.08 358.026 1021.33 368.862 1028.25 368.687C1039.47 377.095 1091.95 427.464 1100.13 429.822C1105.46 434.051 1112.57 439.503 1117.45 444.165C1122.48 451.189 1141.26 461.761 1145.76 467.338C1135.3 464.317 1127.09 454.436 1118.99 449.155C1100.21 436.92 1008.46 355.413 992.207 361.424L989.941 360.366C989.437 357.142 986.358 349.89 985.044 346.52Z"/><path fill="#6B54CF" transform="scale(4.30009 4.30009)" d="M963.809 605.33C966.528 607.995 968.121 617.542 967.656 621.223C963.808 628.484 967.98 635.284 968.305 642.682C967.324 641.709 966.366 640.713 965.432 639.694C964.997 646.406 961.104 659.551 959.53 666.582C955.499 675.453 939.739 747.868 934.298 750.429L933.62 750.068C936.046 736.604 942.431 715.377 945.776 700.997C953.084 669.366 959.1 637.451 963.809 605.33Z"/><path fill="#3B5DC4" transform="scale(4.30009 4.30009)" d="M959.53 666.582C961.794 674.995 931.554 769.367 928.881 786.379C928.417 789.338 922.763 801.56 920.526 803.901L919.089 804.212C919.038 801.922 919.182 801.797 920.179 799.666L919.312 799.92C917.45 804.045 916.239 809.07 913.735 812.073L911.995 812.481C922.283 791.852 925.852 770.083 933.62 750.068L934.298 750.429C939.739 747.868 955.499 675.453 959.53 666.582Z"/><path fill="#8265D4" transform="scale(4.30009 4.30009)" d="M816.01 467.11C816.132 467.348 817.393 469.807 817.393 469.807C814.757 486.167 813.512 502.41 813.672 518.994C813.748 526.91 813.164 534.88 815.949 542.432C816.808 544.694 817.75 547.398 818.693 549.579C822.046 559.978 833.365 575.975 833.787 582.116C806.081 553.762 802.213 502.819 816.01 467.11Z"/><path fill="#4D75D6" transform="scale(4.30009 4.30009)" d="M909.858 827.723L912.01 821.555C912.369 824.706 912.444 825.725 913.552 828.824L914.251 828.51C914.602 827.435 916.498 818.74 916.231 819.191C928.545 798.394 936.294 775.124 946.887 753.46C950.54 745.991 953.227 736.481 957.744 729.652L959.003 729.091C959.21 731.939 917.668 826.718 913.064 838.425C912.733 836.824 912.755 835.18 912.693 833.531L911.205 832.727C910.822 830.728 910.487 829.665 909.858 827.723Z"/><path fill="#3E40C4" transform="scale(4.30009 4.30009)" d="M964.586 601.769C967.065 602.522 969.042 603.3 971.632 603.325C973.44 611.046 983.215 623.317 986.869 632.727C981.162 630.314 976.865 620.659 973.816 620.216C968.689 629.033 971.91 627.852 970.077 633.956C967.401 629.402 967.81 626.458 967.656 621.223C968.121 617.542 966.528 607.995 963.809 605.33L964.586 601.769Z"/><path fill="#4D75D6" transform="scale(4.30009 4.30009)" d="M968.305 642.682C967.98 635.284 963.808 628.484 967.656 621.223C967.81 626.458 967.401 629.402 970.077 633.956C972.19 642.844 975.672 661.04 973.523 669.827L972.754 668.147L968.694 670.258L967.846 669.745C967.043 665.46 965.922 658.699 967.52 654.548C967.576 650.139 967.541 647.039 968.305 642.682Z"/><path fill="#84B2DB" transform="scale(4.30009 4.30009)" d="M968.305 642.682L969.359 643.551C969.634 648.307 969.88 650.219 968.9 654.824L967.975 655.692L967.52 654.548C967.576 650.139 967.541 647.039 968.305 642.682Z"/><path fill="#6E40E3" transform="scale(4.30009 4.30009)" d="M989.941 360.366L992.207 361.424C986.698 372.235 985.216 389.021 982.117 400.933C979.644 410.437 983.843 408.787 975.362 416.322C977.01 417.647 978.426 417.556 980.605 417.808C973.967 419.455 973.248 418.41 966.239 421.212L965.358 421.2L963.029 413.211L965.663 409.603C966.128 411.633 966.667 416.759 966.976 419.047L967.748 419.609C978.237 416.366 986.064 371.16 989.941 360.366Z"/><path fill="#4A2289" transform="scale(4.30009 4.30009)" d="M815.949 542.432C816.034 532.447 817.109 538.76 820.05 530.905C821.192 527.857 816.96 525.813 818.894 519.182L819.943 518.458C821.665 520.704 820.671 522.11 820.914 525.31C821.245 529.649 827.418 538.851 827.098 542.619L826.074 542.733L822.671 539.317C824.607 544.722 837.22 553.298 835.731 556.466C830.912 555.477 826.083 549.422 822.904 545.68C821.206 543.682 821.536 536.821 819.148 535.025L819.272 535.053C818.644 536.944 818.441 537.428 819.078 539.333L818.587 540.978C818.676 543.649 818.897 546.967 818.693 549.579C817.75 547.398 816.808 544.694 815.949 542.432Z"/><path fill="#AF97EB" transform="scale(4.30009 4.30009)" d="M971.632 603.325L971.999 602.549C978.26 612.801 994.864 629.708 994.463 643.858C994.991 645.857 994.923 646.01 994.689 648.1L994.344 648.056L994.27 648.607L993.01 648.283L992.516 646.272L991.154 645.59C989.794 640.659 988.736 637.491 986.869 632.727C983.215 623.317 973.44 611.046 971.632 603.325Z"/><path fill="#6B54CF" transform="scale(4.30009 4.30009)" d="M1252.1 510.845L1251.3 514.694C1243.75 514.834 1231.76 516.104 1226.08 511.402L1227.4 510.916C1233.49 511.122 1238.38 511.325 1244.49 510.881L1251.17 510.756L1252.1 510.845Z"/><path fill="#967AE4" transform="scale(4.30009 4.30009)" d="M1264.11 520.335C1265.61 519.892 1266.4 519.557 1267.96 519.411L1269.72 520.953C1269.64 524.233 1266.15 525.869 1263.67 527.256C1260.2 529.157 1256.04 531.719 1252.28 532.625C1256.27 528.576 1260.22 524.479 1264.11 520.335Z"/><path fill="#3E40C4" transform="scale(4.30009 4.30009)" d="M939.156 587.968C941.192 585.914 945.439 583.453 948.046 581.809C944.827 582.553 934.899 585.343 932.523 584.209L932.637 582.951C946.316 576.438 959.123 568.405 971.56 559.477C975.861 556.389 978.475 547.438 985.081 545.95C987.113 553.953 981.907 552.937 980.286 560L981.147 561.388L980.66 561.508L982.447 560.846L983.447 561.335C981.008 570.734 956.866 587.273 947.19 588.901C945.144 591.28 942.26 590.227 938.433 591.171L938.257 592.254C942.406 593.581 946.859 590.052 950.021 591.537L945.62 593.948C943.706 598.026 941.546 597.368 937.95 598.752C912.954 608.371 896.248 602.48 873.671 589.748C873.742 586.69 873.435 587.906 875.21 585.077C881.15 582.189 881.686 585.687 886.941 588.072C898.071 593.125 930.549 597.449 939.156 587.968Z"/><path fill="#6E40E3" transform="scale(4.30009 4.30009)" d="M985.081 545.95C984.792 549.805 981.359 556.344 977.593 557.782C978.809 551.962 980.687 549.896 985.081 545.95Z"/><path fill="#6E40E3" transform="scale(4.30009 4.30009)" d="M976.635 557.248C976.645 563.177 965.87 571.268 960.29 572.241L960.2 569.812C961.716 568.093 973.54 559.699 976.635 557.248Z"/><path fill="#6E40E3" transform="scale(4.30009 4.30009)" d="M1069.83 540.407L1070.93 541.668C1064.01 546.219 1067.95 550.57 1053.99 555.989L1054.02 555.78C1044.96 557.61 1039.18 562.926 1032.48 568.308L1031.38 567.779L1031.67 567.237C1030.34 566.775 1030.1 566.513 1028.97 565.715C1030.14 563.799 1065.2 543.2 1069.83 540.407Z"/><path fill="#6E40E3" transform="scale(4.30009 4.30009)" d="M981.076 606.994C985.829 607.152 1005.92 613.462 1008.81 616.792L1008.06 617.677L1004.88 616.964L1006.14 618.652L1005.76 619.56C1002.98 618.938 1001.93 618.032 999.569 616.505L1001.63 615.412C997.175 612.625 990.525 612.847 981.076 606.994Z"/><path fill="#6E40E3" transform="scale(4.30009 4.30009)" d="M1007.19 590.06L1008.04 590.176L1008.23 591.204C1004.93 593.74 994.385 598.158 990.057 600.1L988.703 599.752C989.802 596.273 1003.11 591.973 1007.19 590.06Z"/><path fill="#4A2289" transform="scale(4.30009 4.30009)" d="M840.915 528.698C844.265 530.193 846.489 531.389 848.112 534.617L846.12 534.787C843.309 533.26 842.516 531.414 840.915 528.698Z"/><path fill="#8265D4" transform="scale(4.30009 4.30009)" d="M725.859 575.704C737.906 583.533 811.907 638.332 819.775 636.89C820.605 636.737 821.414 636.48 822.155 636.077L826.699 633.264L827.769 633.624C827.662 636.404 823.603 642.293 821.952 645.038C811.735 638.98 791.032 623.457 780.273 615.899C763.345 602.931 741.039 589.762 725.859 575.704Z"/><path fill="#E2E1F8" fill-opacity="0.39215687" transform="scale(4.30009 4.30009)" d="M801.72 625.595C803.571 624.616 805.12 623.689 807.291 624.264C810.183 625.031 821.163 631.669 822.087 634.284C815.684 635.686 806.964 629.288 801.72 625.595Z"/></svg>