<svg width="1633" height="1628" viewBox="0 0 1633 1628" fill="none" xmlns="http://www.w3.org/2000/svg">
<path fill-rule="evenodd" clip-rule="evenodd" d="M0 814V1628H816.5H1633V814V0H816.5H0V814ZM848.5 384.037C860.88 387.915 868.477 392.572 916.752 425.877C935.383 438.731 949.455 448.376 963 457.578C971.525 463.37 987.275 474.146 998 481.526C1008.73 488.905 1025.15 500.137 1034.5 506.485C1043.85 512.833 1054.65 520.228 1058.5 522.918C1062.35 525.608 1075.85 534.811 1088.5 543.369C1101.15 551.927 1115.32 561.615 1120 564.898C1124.68 568.182 1135.12 575.285 1143.21 580.684C1151.3 586.083 1165.25 595.533 1174.21 601.686C1183.17 607.838 1198.82 618.535 1209 625.458C1219.18 632.381 1233.57 642.215 1241 647.312C1258.01 658.99 1272.5 668.876 1306.5 692.002C1321.35 702.103 1339.57 714.558 1347 719.678C1354.43 724.798 1364.65 731.803 1369.72 735.244C1414.73 765.777 1420.56 771.443 1428.03 791.916C1437.57 818.053 1431.36 845.627 1411.47 865.48C1404.14 872.797 1386.82 885.029 1317.5 931.875C1297.15 945.627 1278.03 958.622 1275 960.753C1271.97 962.883 1259.6 971.329 1247.5 979.52C1214.67 1001.75 1214.99 1001.53 1194 1016.14C1164.85 1036.44 1161.46 1038.77 1136.5 1055.58C1123.85 1064.1 1110.8 1072.99 1107.5 1075.35C1104.2 1077.7 1097.79 1082.18 1093.25 1085.31C1076.24 1097.04 1068.25 1102.6 1059.5 1108.77C1054.55 1112.26 1043.52 1119.86 1035 1125.65C1007.39 1144.4 968.447 1171.31 932.047 1196.78C927.896 1199.69 916.85 1207.25 907.5 1213.58C898.15 1219.92 886 1228.24 880.5 1232.07C862.081 1244.91 849.867 1249.75 833.5 1250.68C821.474 1251.36 812.05 1249.3 800.043 1243.38C786.678 1236.78 777.003 1227.07 770.678 1213.91C762.177 1196.22 762.914 1235.88 763.224 813C763.487 454.163 763.584 436.219 765.295 430.5C772.068 407.864 788.517 391.177 811 384.136C820.224 381.248 821.402 381.1 832 381.492C838.099 381.718 844.006 382.629 848.5 384.037ZM661.985 467.75C661.976 505.563 661.639 536.987 661.235 537.582C660.451 538.735 632.269 562.67 626.354 567.205C624.414 568.693 619.153 573.031 614.663 576.845C610.173 580.66 602.45 587.118 597.5 591.197C592.55 595.276 583.176 603.088 576.67 608.557C570.163 614.026 563.407 619.625 561.655 621C559.904 622.375 553.166 628 546.682 633.5C540.198 639 532.78 645.17 530.196 647.211C523.644 652.388 506.353 666.924 477.513 691.5C472.995 695.35 466.222 700.975 462.462 704C458.702 707.025 450.872 713.554 445.063 718.509C439.253 723.463 433.19 728.535 431.588 729.78C429.987 731.024 422.337 737.403 414.588 743.955C406.84 750.506 387.45 766.757 371.5 780.067C355.55 793.377 340.925 805.67 339 807.384C337.075 809.098 333.98 811.682 332.123 813.125L328.746 815.749L334.789 820.625C338.113 823.306 350.433 833.581 362.166 843.459C373.9 853.336 394.525 870.598 408 881.818C421.475 893.039 438.8 907.516 446.5 913.991C486.858 947.925 492.604 952.684 519.508 974.452C527.633 981.025 536.58 988.473 539.39 991.002C544.043 995.189 553.191 1002.9 585.392 1029.77C591.501 1034.87 600.55 1042.38 605.5 1046.47C610.45 1050.56 618.36 1057.19 623.078 1061.2C627.795 1065.22 638.261 1074.06 646.334 1080.85C654.408 1087.65 661.247 1094.17 661.533 1095.35C661.818 1096.53 661.928 1127.59 661.776 1164.36L661.5 1231.23L646 1218.49C637.475 1211.49 627.8 1203.41 624.5 1200.55C621.2 1197.69 614.45 1192.08 609.5 1188.08C604.55 1184.08 595.55 1176.64 589.5 1171.53C578.947 1162.62 563.751 1149.96 553.449 1141.5C550.771 1139.3 542.937 1132.77 536.04 1126.99C529.143 1121.22 522.1 1115.37 520.388 1113.99C518.677 1112.62 511.927 1106.97 505.388 1101.43C498.85 1095.89 484.909 1084.36 474.41 1075.81C463.91 1067.26 454.235 1059.36 452.91 1058.25C451.584 1057.14 435.2 1043.56 416.5 1028.06C397.8 1012.57 378.9 996.799 374.5 993.009C370.1 989.219 364.404 984.404 361.842 982.309C350.08 972.691 335.13 960.281 331.415 957.051C329.168 955.098 321.743 948.925 314.915 943.332C308.087 937.74 292.6 924.95 280.5 914.911C268.4 904.871 249.812 889.697 239.193 881.191C228.574 872.685 217.869 863.25 215.404 860.223C199.844 841.121 195.595 811.294 205.212 788.668C210.858 775.383 216.695 768.588 235.492 753.414C261.48 732.435 279.638 717.54 288.414 710C293.215 705.875 299.85 700.382 303.159 697.793C306.468 695.205 310.877 691.605 312.955 689.793C319.37 684.205 336.607 669.813 357 653.02C367.725 644.188 382.35 632.074 389.5 626.1C396.65 620.127 405.425 612.8 409 609.82C412.575 606.839 421.35 599.487 428.5 593.481C488.734 542.889 492.041 540.132 501.464 532.648C503.644 530.917 507.057 528.053 509.047 526.285C511.037 524.516 520.115 516.866 529.219 509.285C538.323 501.703 554.191 488.3 564.481 479.5C574.771 470.7 586.464 460.8 590.464 457.5C594.464 454.2 603.069 447 609.585 441.5C616.102 436 622.846 430.375 624.572 429C626.299 427.625 635.082 420.313 644.091 412.75C653.1 405.188 660.815 399 661.236 399C661.656 399 661.993 429.938 661.985 467.75ZM867.755 815.672C867.895 977.741 868.234 1110.57 868.507 1110.84C868.78 1111.11 870.915 1109.98 873.252 1108.31C876.866 1105.74 897.319 1091.7 942 1061.14C947.225 1057.56 958.7 1049.74 967.5 1043.76C976.3 1037.78 991.168 1027.62 1000.54 1021.19C1015.78 1010.74 1025.46 1004.12 1063 978.531C1068.78 974.594 1083.62 964.449 1096 955.987C1108.38 947.525 1124.35 936.604 1131.5 931.717C1138.65 926.831 1151.93 917.721 1161 911.472C1170.07 905.223 1186.05 894.292 1196.5 887.181C1206.95 880.07 1222.7 869.266 1231.5 863.172C1240.3 857.077 1259.34 844.104 1273.82 834.342C1288.29 824.581 1300.33 816.271 1300.58 815.877C1300.95 815.268 1282.14 802.231 1212.61 754.912C1187.65 737.93 1181.95 734.041 1171 726.528C1157.55 717.302 1146.1 709.527 1118 690.523C1106.73 682.899 1092.55 673.207 1086.5 668.987C1080.45 664.766 1067.85 656.143 1058.5 649.824C1036.68 635.075 1025.27 627.271 1011 617.334C997.856 608.179 996.417 607.205 974 592.29C964.925 586.252 948.376 575.054 937.224 567.406C926.072 559.758 913.82 551.475 909.998 549C906.175 546.525 895.207 539.212 885.624 532.75C876.04 526.288 868.042 521 867.85 521C867.657 521 867.615 653.602 867.755 815.672ZM1037.11 761.994C1045.66 763.57 1057.68 770.031 1064.32 776.621C1075.33 787.547 1079.97 798.135 1080.7 814C1081.13 823.208 1080.89 825.435 1078.75 832.098C1071.44 854.855 1049.71 871.039 1026.54 870.983C985.302 870.882 959.399 827.848 978.182 790.64C985.192 776.753 1002.29 764.32 1018 761.691C1022.89 760.873 1031.81 761.014 1037.11 761.994Z" fill="black"/>
</svg>
